<svg width="415" height="249" viewBox="0 0 415 249" fill="none" xmlns="http://www.w3.org/2000/svg">
<g clip-path="url(#clip0_13_214)">
<path d="M351.11 92.7709H351.014L296.089 116.252L220.939 148.378C220.646 148.502 220.331 148.567 220.012 148.568C219.694 148.57 219.378 148.509 219.083 148.388L141.551 116.185L85.2763 92.8093L85.1904 92.7709H85.0946C84.2067 92.7719 83.3554 93.1255 82.7275 93.7541C82.0996 94.3827 81.7465 95.235 81.7455 96.124V241.741C81.7465 242.63 82.0996 243.482 82.7275 244.111C83.3554 244.74 84.2067 245.093 85.0946 245.094H351.11C351.998 245.093 352.849 244.74 353.477 244.111C354.105 243.482 354.458 242.63 354.459 241.741V96.124C354.458 95.235 354.105 94.3827 353.477 93.7541C352.849 93.1255 351.998 92.7719 351.11 92.7709V92.7709Z" fill="white"/>
<path d="M352.066 93.7289C351.969 93.729 351.873 93.699 351.793 93.6431L219.475 1.38532C219.072 1.10587 218.594 0.956525 218.104 0.957361C217.614 0.958198 217.136 1.10917 216.734 1.39L85.3694 93.6422C85.318 93.6783 85.2599 93.7039 85.1986 93.7176C85.1372 93.7313 85.0738 93.7327 85.0119 93.7218C84.95 93.711 84.8909 93.688 84.8378 93.6542C84.7848 93.6205 84.7389 93.5766 84.7029 93.5251C84.6668 93.4735 84.6412 93.4154 84.6275 93.354C84.6139 93.2926 84.6124 93.2291 84.6233 93.1671C84.6342 93.1052 84.6571 93.0459 84.6908 92.9929C84.7245 92.9398 84.7684 92.8938 84.8198 92.8577L216.185 0.605535C216.747 0.21244 217.417 0.00113314 218.102 4.54459e-06C218.788 -0.00112405 219.458 0.207978 220.022 0.59922L352.34 92.8568C352.424 92.9151 352.486 92.9986 352.519 93.0951C352.552 93.1917 352.554 93.2962 352.523 93.3935C352.492 93.4908 352.432 93.5758 352.35 93.6361C352.267 93.6965 352.168 93.729 352.066 93.7289L352.066 93.7289Z" fill="#3F3D56"/>
<path d="M92.8761 96.9992L218.234 3.98483L344.543 103.618L224.693 174.75L159.624 159.901L92.8761 96.9992Z" fill="#E6E6E6"/>
<path d="M165.117 218.685H103.187C102.807 218.685 102.43 218.611 102.079 218.465C101.727 218.32 101.408 218.107 101.139 217.838C100.87 217.569 100.656 217.249 100.511 216.898C100.365 216.546 100.29 216.169 100.29 215.788C100.29 215.407 100.365 215.03 100.511 214.679C100.656 214.327 100.87 214.008 101.139 213.739C101.408 213.47 101.727 213.256 102.079 213.111C102.43 212.965 102.807 212.891 103.187 212.891H165.117C165.497 212.891 165.874 212.965 166.225 213.111C166.577 213.256 166.896 213.47 167.165 213.739C167.434 214.008 167.648 214.327 167.794 214.679C167.939 215.03 168.014 215.407 168.014 215.788C168.014 216.169 167.939 216.546 167.794 216.898C167.648 217.249 167.434 217.569 167.165 217.838C166.896 218.107 166.577 218.32 166.225 218.465C165.874 218.611 165.497 218.685 165.117 218.685Z" fill="#FA8636"/>
<path d="M125.406 206.231H103.187C102.807 206.231 102.43 206.157 102.079 206.011C101.727 205.866 101.408 205.653 101.139 205.384C100.87 205.115 100.656 204.795 100.511 204.443C100.365 204.092 100.29 203.715 100.29 203.334C100.29 202.953 100.365 202.576 100.511 202.225C100.656 201.873 100.87 201.553 101.139 201.284C101.408 201.015 101.727 200.802 102.079 200.657C102.43 200.511 102.807 200.437 103.187 200.437H125.406C125.786 200.437 126.163 200.511 126.515 200.657C126.866 200.802 127.185 201.015 127.454 201.284C127.724 201.553 127.937 201.873 128.083 202.225C128.228 202.576 128.303 202.953 128.303 203.334C128.303 203.715 128.228 204.092 128.083 204.443C127.937 204.795 127.724 205.115 127.454 205.384C127.185 205.653 126.866 205.866 126.515 206.011C126.163 206.157 125.786 206.231 125.406 206.231Z" fill="#6C63FF"/>
<path d="M219.997 148.807C219.526 148.808 219.06 148.716 218.624 148.538L141.312 116.421V15.8908C141.313 15.0018 141.666 14.1496 142.294 13.521C142.922 12.8924 143.773 12.5388 144.661 12.5378H292.979C293.867 12.5388 294.718 12.8924 295.346 13.521C295.974 14.1496 296.327 15.0018 296.328 15.8908V116.491L296.183 116.554L221.411 148.522C220.963 148.711 220.483 148.807 219.997 148.807V148.807Z" fill="white"/>
<path d="M219.997 149.046C219.495 149.047 218.998 148.949 218.533 148.76L141.073 116.581V15.8908C141.074 14.9383 141.452 14.0252 142.125 13.3517C142.798 12.6782 143.71 12.2993 144.661 12.2982H292.979C293.93 12.2993 294.842 12.6782 295.515 13.3517C296.188 14.0252 296.566 14.9383 296.567 15.8908V116.649L221.505 148.742C221.028 148.943 220.515 149.047 219.997 149.046V149.046ZM142.03 115.941L218.898 147.874C219.615 148.165 220.418 148.16 221.131 147.861L295.61 116.017V15.8908C295.609 15.1923 295.332 14.5227 294.839 14.0288C294.345 13.5349 293.676 13.2571 292.979 13.2563H144.661C143.963 13.2571 143.295 13.5349 142.801 14.0288C142.308 14.5227 142.03 15.1923 142.03 15.8908V115.941Z" fill="#3F3D56"/>
<path d="M351.11 92.7709H351.014L296.089 116.252L220.939 148.378C220.646 148.502 220.331 148.567 220.012 148.568C219.694 148.57 219.378 148.509 219.083 148.388L141.551 116.185L85.2763 92.8093L85.1904 92.7709H85.0946C84.2067 92.7719 83.3554 93.1255 82.7275 93.7541C82.0996 94.3827 81.7465 95.235 81.7455 96.124V241.741C81.7465 242.63 82.0996 243.482 82.7275 244.111C83.3554 244.74 84.2067 245.093 85.0946 245.094H351.11C351.998 245.093 352.849 244.74 353.477 244.111C354.105 243.482 354.458 242.63 354.459 241.741V96.124C354.458 95.235 354.105 94.3827 353.477 93.7541C352.849 93.1255 351.998 92.7719 351.11 92.7709V92.7709ZM353.502 241.741C353.502 242.376 353.25 242.985 352.801 243.434C352.352 243.883 351.744 244.136 351.11 244.136H85.0946C84.4602 244.136 83.8519 243.883 83.4033 243.434C82.9547 242.985 82.7026 242.376 82.7024 241.741V96.124C82.7032 95.5046 82.9432 94.9096 83.3721 94.4632C83.801 94.0169 84.3856 93.7538 85.0037 93.7289L141.551 117.219L218.715 149.274C219.55 149.614 220.486 149.609 221.317 149.26L296.089 117.291L351.205 93.7289C351.823 93.7556 352.406 94.0194 352.833 94.4655C353.261 94.9116 353.5 95.5056 353.502 96.124V241.741Z" fill="#3F3D56"/>
<path d="M207.961 50.1163H155.332C154.317 50.1163 153.343 49.7126 152.625 48.994C151.908 48.2753 151.504 47.3006 151.504 46.2843C151.504 45.268 151.908 44.2933 152.625 43.5746C153.343 42.856 154.317 42.4523 155.332 42.4523H207.961C208.976 42.4523 209.949 42.856 210.667 43.5746C211.385 44.2933 211.788 45.268 211.788 46.2843C211.788 47.3006 211.385 48.2753 210.667 48.994C209.949 49.7126 208.976 50.1163 207.961 50.1163Z" fill="#FA8636"/>
<path d="M180.689 33.8302H155.332C154.317 33.8302 153.343 33.4265 152.625 32.7079C151.908 31.9892 151.504 31.0145 151.504 29.9982C151.504 28.9819 151.908 28.0072 152.625 27.2885C153.343 26.5699 154.317 26.1662 155.332 26.1662H180.689C181.705 26.1662 182.678 26.5699 183.396 27.2885C184.114 28.0072 184.517 28.9819 184.517 29.9982C184.517 31.0145 184.114 31.9892 183.396 32.7079C182.678 33.4265 181.705 33.8302 180.689 33.8302Z" fill="#6C63FF"/>
<path d="M258.182 88.4366H177.804C176.788 88.4366 175.815 88.0329 175.097 87.3143C174.379 86.5956 173.976 85.6209 173.976 84.6046C173.976 83.5883 174.379 82.6136 175.097 81.895C175.815 81.1763 176.788 80.7726 177.804 80.7726H258.182C259.197 80.7726 260.171 81.1763 260.889 81.895C261.607 82.6136 262.01 83.5883 262.01 84.6046C262.01 85.6209 261.607 86.5956 260.889 87.3143C260.171 88.0329 259.197 88.4366 258.182 88.4366Z" fill="#CCCCCC"/>
<path d="M258.182 106.16H177.804C176.788 106.16 175.815 105.756 175.097 105.037C174.379 104.319 173.976 103.344 173.976 102.328C173.976 101.311 174.379 100.337 175.097 99.6181C175.815 98.8995 176.788 98.4957 177.804 98.4957H258.182C259.197 98.4957 260.171 98.8995 260.889 99.6181C261.607 100.337 262.01 101.311 262.01 102.328C262.01 103.344 261.607 104.319 260.889 105.037C260.171 105.756 259.197 106.16 258.182 106.16Z" fill="#CCCCCC"/>
<path d="M19.5913 110.64C19.0941 110.639 18.6123 110.466 18.2277 110.15C17.8432 109.835 17.5793 109.396 17.4809 108.908L15.74 100.219C14.8167 95.6101 15.7599 90.8229 18.3621 86.9105C20.9643 82.998 25.0123 80.2807 29.6157 79.3563C34.219 78.432 39.0006 79.3763 42.9085 81.9815C46.8164 84.5868 49.5305 88.6395 50.4538 93.2483L52.1943 101.937C52.3059 102.497 52.191 103.079 51.8747 103.555C51.5584 104.031 51.0666 104.361 50.5071 104.474L20.0156 110.597C19.8759 110.625 19.7338 110.639 19.5913 110.64Z" fill="#2F2E41"/>
<path d="M73.7226 240.009L68.253 240.009L65.6522 218.886L73.7245 218.887L73.7226 240.009Z" fill="#EE9368"/>
<path d="M64.346 238.444H74.8947V245.093H57.7043C57.7043 243.33 58.404 241.638 59.6496 240.391C60.8952 239.144 62.5845 238.444 64.346 238.444Z" fill="#2F2E41"/>
<path d="M16.7307 239.954L11.6942 237.819L17.5254 217.353L24.9585 220.505L16.7307 239.954Z" fill="#EE9368"/>
<path d="M8.70611 234.852L18.4194 238.971L15.8292 245.094L-1.29666e-05 238.382C0.340149 237.578 0.835167 236.849 1.45679 236.236C2.0784 235.624 2.81445 235.14 3.62289 234.812C4.43133 234.484 5.29633 234.319 6.16851 234.326C7.04069 234.333 7.90297 234.512 8.70611 234.852V234.852Z" fill="#2F2E41"/>
<path d="M33.5981 108.462C40.088 108.462 45.3492 103.195 45.3492 96.6973C45.3492 90.1998 40.088 84.9325 33.5981 84.9325C27.1081 84.9325 21.847 90.1998 21.847 96.6973C21.847 103.195 27.1081 108.462 33.5981 108.462Z" fill="#EE9368"/>
<path d="M34.1543 150.217L34.0337 149.825C30.8317 139.405 27.5219 128.634 24.2075 118.39L24.1178 118.114L24.3215 117.907C29.4662 112.667 39.1041 110.577 46.7408 113.047C54.4265 115.531 59.7229 122.498 59.0608 129.254C58.7086 133.312 59.7977 137.365 62.1363 140.698L62.4429 141.144L61.9635 141.394C53.3779 145.818 44.1169 148.779 34.56 150.158L34.1543 150.217Z" fill="#3F3D56"/>
<path d="M19.9819 236.159C19.5629 236.158 19.1514 236.047 18.7889 235.836L12.4412 232.166C11.9205 231.869 11.5312 231.385 11.3511 230.813C11.171 230.24 11.2134 229.621 11.4699 229.078L25.5748 195.571L36.3545 146.701L55.9998 139.549L56.1784 139.631C77.2403 149.318 75.6123 218.746 75.0719 232.566C75.0476 233.147 74.813 233.7 74.4117 234.121C74.0104 234.542 73.4699 234.802 72.891 234.854L66.9836 235.626C66.383 235.679 65.7843 235.505 65.3054 235.138C64.8264 234.772 64.5019 234.239 64.3956 233.645L52.3354 179.683C52.3233 179.58 52.2784 179.485 52.2075 179.41C52.1366 179.335 52.0435 179.285 51.9419 179.267C51.8446 179.248 51.7438 179.261 51.6541 179.303C51.5645 179.346 51.4906 179.416 51.4432 179.503L22.0738 234.931C21.9191 235.209 21.7103 235.453 21.4597 235.65C21.2091 235.846 20.9218 235.99 20.6148 236.073C20.4085 236.13 20.1957 236.158 19.9819 236.159V236.159Z" fill="#2F2E41"/>
<path d="M27.0375 186.914C27.4084 186.372 27.6562 185.756 27.7635 185.108C27.8708 184.46 27.8349 183.797 27.6584 183.165C27.4818 182.532 27.1689 181.946 26.7417 181.448C26.3145 180.95 25.7833 180.551 25.1857 180.281L25.507 170.022L19.3274 168.306L19.077 182.8C18.6897 183.835 18.6951 184.977 19.0923 186.008C19.4895 187.04 20.2508 187.89 21.232 188.397C22.2133 188.904 23.3462 189.033 24.4162 188.76C25.4862 188.486 26.4188 187.83 27.0374 186.914H27.0375Z" fill="#EE9368"/>
<path d="M19.1684 176.07L18.8057 176.068C18.208 176.064 17.6337 175.835 17.1972 175.426C16.7607 175.017 16.494 174.458 16.4503 173.861C15.8576 166.221 14.0375 140.194 15.5034 126.083C15.6976 124.767 16.1538 123.502 16.845 122.365C17.5363 121.228 18.4485 120.242 19.5275 119.464C20.6066 118.686 21.8306 118.133 23.127 117.838C24.4234 117.543 25.7658 117.511 27.0747 117.745L27.452 117.828L27.4492 118.215C27.3148 136.781 27.3235 155.237 27.3319 173.087C27.3332 173.632 27.1488 174.161 26.809 174.587C26.4693 175.013 25.9946 175.31 25.4634 175.429C23.3926 175.858 21.2832 176.073 19.1684 176.07Z" fill="#F9CFF2"/>
<path d="M33.2358 198.336C31.654 198.329 30.1289 197.744 28.9466 196.692C27.7643 195.64 27.006 194.192 26.8137 192.62L27.3341 149.773L18.8279 128.232C18.4699 125.402 19.0779 122.535 20.553 120.094C22.0282 117.654 24.284 115.785 26.954 114.79L29.2281 113.936C29.6578 113.774 30.115 113.7 30.5737 113.716C31.0323 113.732 31.4832 113.838 31.9006 114.029C32.318 114.22 32.6936 114.492 33.0059 114.829C33.3182 115.165 33.5611 115.56 33.7205 115.991L42.4917 139.701L42.4939 139.735C43.1021 149.172 45.8471 196.137 40.3741 197.538C38.055 198.082 35.6798 198.35 33.298 198.335L33.2358 198.336Z" fill="#F9CFF2"/>
<path d="M83.7676 170.737C83.1598 170.491 82.6135 170.113 82.1671 169.632C81.7207 169.151 81.3851 168.578 81.1839 167.953C80.9827 167.328 80.9208 166.666 81.0026 166.015C81.0845 165.363 81.308 164.738 81.6574 164.182L75.7369 155.803L79.9457 150.958L88.1406 162.91C89.0341 163.559 89.6585 164.514 89.8956 165.594C90.1327 166.674 89.9659 167.803 89.4269 168.768C88.8878 169.733 88.014 170.466 86.971 170.829C85.9279 171.192 84.7882 171.16 83.7676 170.737H83.7676Z" fill="#EE9368"/>
<path d="M77.8556 159.968C77.5464 159.959 77.2439 159.876 76.9736 159.725C76.7033 159.574 76.4732 159.361 76.3025 159.103L76.2714 159.055C66.4752 144.211 56.3455 128.861 46.079 113.559L45.9685 113.395L46.1098 113.255C47.0103 112.414 48.0714 111.763 49.2294 111.343C50.3874 110.922 51.6184 110.741 52.8483 110.809C54.1145 110.832 55.3616 111.122 56.5081 111.66C57.6546 112.199 58.6748 112.973 59.5021 113.933C68.4736 124.862 81.2777 147.545 84.9882 154.237C85.2225 154.652 85.2918 155.141 85.1824 155.605C85.073 156.069 84.7929 156.476 84.3979 156.742C82.576 157.984 80.6243 159.024 78.5775 159.842C78.3478 159.933 78.1023 159.976 77.8556 159.968Z" fill="#F9CFF2"/>
<path d="M74.5667 188.786C68.699 188.79 47.7051 148.318 43.5562 140.205L43.5203 140.107L38.9307 115.281C38.8471 114.83 38.8535 114.366 38.9495 113.916C39.0455 113.467 39.2292 113.041 39.49 112.663C39.7508 112.285 40.0836 111.963 40.4693 111.714C40.855 111.465 41.286 111.295 41.7376 111.213L44.1279 110.78C46.9303 110.266 49.8239 110.715 52.3392 112.055C54.8544 113.394 56.8435 115.546 57.9835 118.16L63.9807 143.397L84.0337 177.508C84.6923 178.97 84.7891 180.623 84.3056 182.151C83.8221 183.68 82.7922 184.976 81.4134 185.791C79.3752 187.025 77.1981 188.014 74.9278 188.735C74.8104 188.769 74.6889 188.786 74.5667 188.786H74.5667Z" fill="#F9CFF2"/>
<path d="M42.7249 96.7992H19.0419V93.9251C19.0454 90.7502 20.3068 87.7064 22.5491 85.4614C24.7915 83.2164 27.8318 81.9536 31.003 81.95H32.9168C36.0879 81.9536 39.1282 83.2164 41.3706 85.4614C43.613 87.7064 44.8743 90.7502 44.8779 93.9251V94.6436C44.8772 95.2151 44.6502 95.763 44.2466 96.1671C43.843 96.5712 43.2957 96.7985 42.7249 96.7992Z" fill="#2F2E41"/>
</g>
<g clip-path="url(#clip1_13_214)">
<path d="M405.504 237.859L398.831 239.534L389.433 213.608L399.282 211.136L405.504 237.859Z" fill="#EE9368"/>
<path d="M386.806 249L386.759 248.801C386.205 246.453 386.587 243.977 387.821 241.916C389.055 239.855 391.04 238.378 393.34 237.808L407.011 234.437L409.156 243.489L386.806 249Z" fill="#2F2E41"/>
<path d="M375.552 242.447L368.623 242.446L365.327 214.777L375.554 214.777L375.552 242.447Z" fill="#EE9368"/>
<path d="M377.014 249L354.369 248.999V248.807C354.369 246.541 355.296 244.367 356.945 242.765C358.594 241.162 360.831 240.262 363.163 240.262H363.164L377.015 240.263L377.014 249Z" fill="#2F2E41"/>
<path d="M365.54 231.773L358.752 150.121L386.851 144.894L386.962 144.873L395.186 150.21L392.324 180.26L405.504 227.11L394.123 230.133L380.923 186.682L377.902 173.469L376.353 190.638L377.503 232.981L365.54 231.773Z" fill="#2F2E41"/>
<path d="M357.365 152.451L357.291 152.355L366.896 78.0199L366.908 77.9225L366.976 77.8529C367.117 77.7073 370.482 74.2891 373.944 74.2891C374.444 74.2891 374.92 74.2761 375.376 74.2642C378.025 74.1934 380.117 74.1368 382.603 76.6933C385.137 79.2973 393.403 88.8062 393.403 101.83C393.403 114.435 394.519 153.609 394.531 154.003L394.546 154.556L394.095 154.255C393.984 154.181 382.866 146.904 373.542 153.668C370.628 155.783 368.011 156.524 365.773 156.524C360.563 156.524 357.409 152.509 357.365 152.451Z" fill="#0E55AD"/>
<path d="M379.359 68.6069C386.213 64.8724 388.732 56.307 384.985 49.4755C381.238 42.6439 372.644 40.1332 365.79 43.8677C358.936 47.6022 356.417 56.1676 360.164 62.9991C363.911 69.8307 372.504 72.3414 379.359 68.6069Z" fill="#EE9368"/>
<path d="M350.891 167.688C351.578 167.181 352.14 166.537 352.537 165.801C352.934 165.066 353.157 164.256 353.19 163.429C353.223 162.603 353.065 161.779 352.727 161.017C352.39 160.255 351.881 159.572 351.236 159.017L359.483 140.504L348.685 142.396L342.508 159.686C341.601 160.779 341.146 162.15 341.23 163.541C341.315 164.931 341.932 166.244 342.965 167.23C343.998 168.216 345.376 168.808 346.837 168.892C348.297 168.976 349.74 168.548 350.891 167.688Z" fill="#EE9368"/>
<path d="M343.412 153.322L345.979 147.892C345.821 147.797 345.69 147.661 345.6 147.499C343.202 143.335 357.689 108.755 358.654 106.462C358.507 105.214 356.986 91.9948 358.098 87.539C359.407 82.2936 362.095 79.849 367.085 79.3647C372.589 78.847 374.073 86.334 374.088 86.41L374.093 105.658L367.777 127.814L353.372 157.252L343.412 153.322Z" fill="#0E55AE"/>
<path d="M373.926 61.1031C372.235 61.3239 370.96 59.5876 370.369 57.9826C369.777 56.3776 369.327 54.5091 367.857 53.6421C365.849 52.4576 363.28 53.8822 360.984 53.4914C358.39 53.0501 356.704 50.2913 356.572 47.6543C356.44 45.0173 357.485 42.4812 358.511 40.0499L358.869 43.0714C358.821 42.0473 359.036 41.0281 359.493 40.1111C359.949 39.1941 360.633 38.4101 361.478 37.834L361.016 42.2676C361.305 39.7838 363.971 37.8592 366.409 38.3739L366.336 41.0156C369.331 40.6581 372.353 40.3001 375.357 40.5725C378.361 40.8448 381.386 41.7989 383.662 43.7849C387.068 46.7556 388.312 51.6472 387.894 56.1569C387.477 60.6665 385.622 64.9031 383.689 68.9956C383.203 70.0253 382.53 71.1872 381.403 71.3184C380.39 71.4362 379.463 70.586 379.148 69.6122C378.833 68.6383 378.986 67.5803 379.175 66.5741C379.46 65.0541 379.819 63.5004 379.551 61.9772C379.283 60.454 378.192 58.9489 376.662 58.7622C375.133 58.5755 373.568 60.3306 374.303 61.6898L373.926 61.1031Z" fill="#2F2E41"/>
</g>
<defs>
<clipPath id="clip0_13_214">
<rect width="354.459" height="245.094" fill="white"/>
</clipPath>
<clipPath id="clip1_13_214">
<rect width="95.6941" height="211.894" fill="white" transform="translate(319.306 37.1059)"/>
</clipPath>
</defs>
</svg>
